<svg xmlns="http://www.w3.org/2000/svg" width="129.903" height="80.991" viewBox="0 0 129.903 80.991">
  <g id="그룹_134" data-name="그룹 134" transform="translate(-2361.732 -303.359)">
    <g id="그룹_117" data-name="그룹 117" transform="translate(14 -13.228)">
      <g id="그룹_115" data-name="그룹 115">
        <path id="패스_1262" data-name="패스 1262" d="M2392.567,380.551h-3.636l-4.346,7.522q-3.072,5.343-7.286,5.343a5.725,5.725,0,0,1-4.338-1.858,6.444,6.444,0,0,1-1.752-4.6,7.745,7.745,0,0,1,1.351-4.3,10.861,10.861,0,0,1,3.689-3.433,12.492,12.492,0,0,1,3.872-1.4,31.4,31.4,0,0,1,5.659-.407h.971l1.037-1.9a11.255,11.255,0,0,1,5.291-5.3,13.611,13.611,0,0,1,5.251-.853,2.075,2.075,0,0,1,1.3.367,1.227,1.227,0,0,1,.472,1.024,2.01,2.01,0,0,1-.158.709l-.118.3-2.257,5.658h1.338q1.471,0,1.471,1.273a1.712,1.712,0,0,1-.6,1.32,2.116,2.116,0,0,1-1.47.545h-2.01l-1.456,3.584h2.481q1.47,0,1.47,1.26a1.725,1.725,0,0,1-.6,1.332,2.111,2.111,0,0,1-1.47.545h-3.164a2.825,2.825,0,0,1-1.844-.584,1.865,1.865,0,0,1-.715-1.516,5.968,5.968,0,0,1,.538-2.048Zm-7.614,0h-1.116a11.089,11.089,0,0,0-5.96,1.391,7.038,7.038,0,0,0-2.238,2.232,5.071,5.071,0,0,0-.834,2.7,3.069,3.069,0,0,0,.8,2.133,2.522,2.522,0,0,0,1.942.886q1.983,0,3.506-2.625Zm8.9-3.138,1.891-4.66a3.959,3.959,0,0,0-2.343.886,11.312,11.312,0,0,0-2.173,2.882l-.538.892Z" fill="#75af79" stroke="#75af79" stroke-width="1"/>
        <path id="패스_1263" data-name="패스 1263" d="M2411.194,379.041q3.138,2.337,3.413,5.094h1.721q1.811,0,1.811,1.26a1.644,1.644,0,0,1-.644,1.378,2.821,2.821,0,0,1-1.772.5h-.971a10.717,10.717,0,0,1-3.072,6.958,8.821,8.821,0,0,1-6.512,2.848,6.662,6.662,0,0,1-4.791-1.818,6.079,6.079,0,0,1-1.9-4.588,5.9,5.9,0,0,1,2.113-4.759,8.485,8.485,0,0,1,5.645-1.778h4.871a4.7,4.7,0,0,0-2.508-2.928l-.394-.21a1.721,1.721,0,0,1-1.1-1.523,2.476,2.476,0,0,1,.748-1.457l4.739-5.527h-5.435q-1.812,0-1.811-1.246a1.669,1.669,0,0,1,.636-1.392,2.84,2.84,0,0,1,1.792-.5h7.574q2.193,0,2.193,1.707a2.45,2.45,0,0,1-.735,1.588Zm.092,8.231H2408.2a12.227,12.227,0,0,0-4.121.473,3.052,3.052,0,0,0-2.167,2.98,2.915,2.915,0,0,0,.991,2.225,3.447,3.447,0,0,0,2.423.912,5.109,5.109,0,0,0,3.852-1.89A8.578,8.578,0,0,0,2411.286,387.272Z" fill="#75af79" stroke="#75af79" stroke-width="1"/>
        <path id="패스_1264" data-name="패스 1264" d="M2429.757,379.041q3.138,2.337,3.413,5.094h1.721q1.81,0,1.811,1.26a1.647,1.647,0,0,1-.644,1.378,2.821,2.821,0,0,1-1.772.5h-.971a10.717,10.717,0,0,1-3.072,6.958,8.822,8.822,0,0,1-6.512,2.848,6.662,6.662,0,0,1-4.791-1.818,6.08,6.08,0,0,1-1.9-4.588,5.9,5.9,0,0,1,2.113-4.759,8.483,8.483,0,0,1,5.645-1.778h4.871a4.7,4.7,0,0,0-2.508-2.928l-.394-.21a1.72,1.72,0,0,1-1.1-1.523,2.476,2.476,0,0,1,.748-1.457l4.739-5.527h-5.435q-1.812,0-1.811-1.246a1.669,1.669,0,0,1,.636-1.392,2.841,2.841,0,0,1,1.792-.5h7.574q2.193,0,2.193,1.707a2.45,2.45,0,0,1-.735,1.588Zm.092,8.231h-3.085a12.233,12.233,0,0,0-4.122.473,3.052,3.052,0,0,0-2.166,2.98,2.912,2.912,0,0,0,.991,2.225,3.445,3.445,0,0,0,2.423.912,5.109,5.109,0,0,0,3.852-1.89A8.58,8.58,0,0,0,2429.849,387.272Z" fill="#75af79" stroke="#75af79" stroke-width="1"/>
        <path id="패스_1265" data-name="패스 1265" d="M2448.214,384.135h2.206q1.811,0,1.811,1.26a1.648,1.648,0,0,1-.637,1.385,2.872,2.872,0,0,1-1.792.492h-2.389a3.632,3.632,0,0,1-2.192-.558,1.9,1.9,0,0,1-.748-1.621,6.1,6.1,0,0,1,.538-2.088l2.639-6.484a8.981,8.981,0,0,0,.8-2.7,1.376,1.376,0,0,0-.538-1.056,1.835,1.835,0,0,0-1.235-.467,3.2,3.2,0,0,0-2.376,1.136,3.628,3.628,0,0,0-1.063,2.54,1.955,1.955,0,0,0,.361,1.261,3.222,3.222,0,0,0,1.319.826,1.2,1.2,0,0,1,.854,1.169,1.584,1.584,0,0,1-.572,1.254,2.107,2.107,0,0,1-1.425.492,3.548,3.548,0,0,1-2.809-1.4,5.059,5.059,0,0,1-1.167-3.355,6.82,6.82,0,0,1,2.152-4.988,6.9,6.9,0,0,1,5.015-2.14,5.253,5.253,0,0,1,3.59,1.26,4,4,0,0,1,1.438,3.138,8.184,8.184,0,0,1-.682,3.033Z" fill="#75af79" stroke="#75af79" stroke-width="1"/>
        <path id="패스_1266" data-name="패스 1266" d="M2472.317,372.49l-4.542,11.2a48.263,48.263,0,0,1-2.521,5.534,9.149,9.149,0,0,1-2.231,2.54,7.325,7.325,0,0,1-4.595,1.549,6.059,6.059,0,0,1-4.5-1.739,6.162,6.162,0,0,1-1.726-4.536,8.938,8.938,0,0,1,2.717-6.459,10.841,10.841,0,0,1,3.65-2.389,11.277,11.277,0,0,1,4.332-.906,2.746,2.746,0,0,1,1.661.466,1.439,1.439,0,0,1,.636,1.214,1.519,1.519,0,0,1-.683,1.3,3.473,3.473,0,0,1-1.522.394,9.859,9.859,0,0,0-4.214,1.194,6.144,6.144,0,0,0-2.114,2.1,5.192,5.192,0,0,0-.774,2.717,3.331,3.331,0,0,0,.774,2.324,2.694,2.694,0,0,0,2.1.853,3.553,3.553,0,0,0,2.757-1.365,18.308,18.308,0,0,0,2.574-4.792l4.541-11.2h-2.559q-1.812,0-1.812-1.286a1.616,1.616,0,0,1,.643-1.359,2.878,2.878,0,0,1,1.786-.492h8.965l.92.21a1.12,1.12,0,0,1,.551,1.076,1.618,1.618,0,0,1-.643,1.359,2.878,2.878,0,0,1-1.786.492Z" fill="#75af79" stroke="#75af79" stroke-width="1"/>
      </g>
      <path id="패스_1267" data-name="패스 1267" d="M2475.447,370.818l-52.73-52.731-73.484,73.484h28.229" fill="none" stroke="#75af79" stroke-linecap="round" stroke-linejoin="round" stroke-width="3"/>
    </g>
  </g>
</svg>
